# xmcd CD database file
#
# Track frame offsets:
#	150
#	22998
#	41164
#	60513
#	76771
#	91699
#	100727
#	119544
#	137611
#	157962
#	176546
#	210302
#	234141
#	254881
#	283653
#
# Disc length: 4075 seconds
#
# Revision: 0
# Processed by: cddbd v1.5PL3 Copyright (c) Steve Scherf et al.
# Submitted via: CDex 1.51
#
DISCID=ba0fe90f
DTITLE=Various Artist - Que Le Pongan Salsa CD 3
DYEAR=2000
DGENRE=Salsa
TTITLE0=Frankie Ruiz_ Mirándote
TTITLE1=Willie Chirino_ Mi clientela
TTITLE2=Eddie Santiago_ Amor ciego
TTITLE3=Tommy Olivencia_ Volveré
TTITLE4=Marvin Santiago_ Fuego a la Jicotea
TTITLE5=Laito Sureda_ Nocturnando
TTITLE6=Sabrosura Viva_ Busco a una mujer
TTITLE7=Paquito Guzmán_ De punta a punta
TTITLE8=Salsa Kids_ Jóvenes
TTITLE9=Edgar Joel_ A fuego lento
TTITLE10=Lalo Rodríguez_ Máximo Chamorro
TTITLE11=Willie Rosario_ Mala mujer
TTITLE12=Eddie Santiago_ Todas
TTITLE13=Willie Rosario_ Ojalá que te vaya bonito
TTITLE14=Andy Montañez_ Ay_ Cucu
EXTD=YEAR: 2000
EXTT0=
EXTT1=
EXTT2=
EXTT3=
EXTT4=
EXTT5=
EXTT6=
EXTT7=
EXTT8=
EXTT9=
EXTT10=
EXTT11=
EXTT12=
EXTT13=
EXTT14=
PLAYORDER=
